<?xml version="1.0" standalone="no"?>
<!DOCTYPE svg PUBLIC "-//W3C//DTD SVG 20010904//EN"
 "http://www.w3.org/TR/2001/REC-SVG-20010904/DTD/svg10.dtd">
<svg version="1.0" xmlns="http://www.w3.org/2000/svg"
 width="260.000000pt" height="260.000000pt" viewBox="0 0 260.000000 260.000000"
 preserveAspectRatio="xMidYMid meet">
<metadata>
Created by potrace 1.11, written by Peter Selinger 2001-2013
</metadata>
<g transform="translate(0.000000,260.000000) scale(0.100000,-0.100000)"
fill="#000000" stroke="none">
<path d="M1075 2248 c-205 -35 -353 -92 -520 -203 -77 -51 -127 -92 -152 -125
-10 -13 -7 -21 12 -45 14 -15 25 -31 25 -35 0 -4 17 -16 38 -25 20 -10 49 -26
63 -36 14 -10 28 -17 30 -15 7 8 8 -59 1 -69 -4 -6 -32 -19 -62 -29 -75 -26
-195 -85 -264 -130 -58 -39 -69 -51 -38 -42 89 27 312 38 467 23 78 -7 74 -7
200 -37 50 -12 99 -24 110 -26 11 -2 43 -8 70 -13 28 -5 86 -8 130 -6 164 6
180 18 96 69 -198 121 -470 207 -629 200 -47 -2 -51 0 -40 14 11 13 11 14 0 8
-10 -6 -13 -1 -10 20 3 29 9 32 88 48 31 7 130 96 130 118 0 16 27 33 45 29 6
-2 17 -4 27 -6 9 -2 30 -11 47 -19 29 -16 31 -20 31 -77 0 -39 -4 -61 -12 -64
-18 -6 -63 -14 -123 -21 -61 -7 -83 -24 -35 -25 42 -1 47 -2 130 -24 36 -10
112 -40 169 -66 57 -27 105 -48 106 -47 1 2 13 28 27 58 27 60 84 121 135 145
32 16 45 28 21 20 -7 -2 -56 -7 -108 -10 -106 -7 -138 -9 -224 -19 l-58 -7 6
25 c3 14 3 26 -1 26 -5 0 -9 15 -10 33 -1 30 2 35 33 46 20 7 40 24 46 37 6
13 15 24 19 24 4 0 33 25 64 55 31 30 60 55 65 55 25 0 64 123 53 168 -5 19
-11 22 -51 20 -26 -2 -91 -11 -147 -20z"/>
<path d="M1400 2241 c0 -52 84 -129 158 -146 53 -11 127 -7 166 9 41 17 57 31
74 63 10 18 8 22 -16 32 -37 15 -206 52 -262 57 -25 2 -62 6 -82 9 -37 6 -38
5 -38 -24z"/>
<path d="M1284 2018 c-70 -84 -130 -155 -134 -158 -3 -3 -13 -15 -23 -27 l-19
-21 40 2 c22 2 45 6 50 10 9 5 111 145 194 266 10 14 23 33 30 42 9 13 10 20
1 29 -8 8 -45 -30 -139 -143z"/>
<path d="M1405 2082 c-22 -31 -57 -81 -79 -111 -21 -31 -54 -77 -73 -104 l-35
-47 44 3 c42 3 44 5 89 83 112 195 120 211 106 222 -9 8 -22 -3 -52 -46z"/>
<path d="M1410 1978 c-41 -72 -77 -135 -79 -140 -1 -5 16 -8 39 -6 l42 3 49
125 c45 115 53 150 32 150 -4 0 -42 -60 -83 -132z"/>
<path d="M1969 2062 c-49 -24 -56 -30 -54 -54 1 -16 0 -28 -2 -28 -3 0 -24 14
-48 30 -24 17 -48 30 -53 30 -18 0 -113 -83 -108 -95 5 -15 -69 -79 -116 -99
-18 -8 -61 -24 -96 -36 -67 -24 -163 -86 -196 -127 -28 -34 -66 -105 -61 -112
13 -21 148 -102 163 -98 395 118 439 128 576 129 107 1 221 -17 399 -60 42
-11 77 -18 77 -15 0 14 -87 137 -111 157 -16 14 -32 39 -35 55 -4 17 -13 36
-20 42 -8 6 -14 26 -14 43 0 36 -47 90 -81 92 -10 1 -25 2 -32 3 -9 1 -13 17
-12 52 1 50 0 52 -44 85 -25 18 -53 33 -61 33 -8 0 -40 -13 -71 -27z m81 -77
c0 -18 -5 -25 -19 -25 -14 0 -17 6 -13 25 2 14 11 25 18 25 8 0 14 -10 14 -25z
m-230 -69 c-14 -14 -24 0 -16 21 6 15 8 15 16 3 6 -9 5 -19 0 -24z"/>
<path d="M1977 1574 c-1 -1 -33 -4 -72 -7 -118 -11 -149 -17 -335 -73 -120
-37 -156 -54 -98 -49 52 5 98 -22 119 -69 19 -44 18 -56 -5 -37 -22 19 -101
-11 -151 -56 -22 -19 -50 -42 -62 -50 -37 -24 -27 -31 44 -31 73 1 100 7 183
45 101 47 117 52 176 58 32 3 75 7 94 10 19 2 64 7 100 10 137 12 163 15 166
18 2 2 -8 20 -21 40 -38 55 -30 56 23 4 27 -26 50 -45 53 -43 6 6 138 29 162
28 21 -1 21 2 0 34 l-16 26 38 -26 c22 -15 53 -26 74 -27 20 0 47 -2 60 -5 19
-3 22 -1 17 13 -27 71 -80 109 -191 138 -75 19 -84 21 -240 41 -49 6 -115 11
-118 8z"/>
<path d="M428 1494 c-2 -1 -35 -5 -73 -7 -39 -3 -70 -6 -70 -7 0 -1 -16 -3
-35 -6 -58 -7 -123 -46 -154 -91 -16 -24 -28 -45 -25 -47 2 -3 36 -7 75 -11
62 -5 73 -3 93 16 12 11 25 18 29 14 4 -4 1 -10 -5 -12 -7 -3 -13 -10 -13 -17
0 -12 181 -48 190 -37 3 3 25 24 49 46 44 40 45 36 8 -18 -10 -16 -17 -31 -13
-34 3 -3 40 -7 83 -9 203 -9 285 -21 366 -57 59 -25 86 -31 147 -31 41 -1 86
2 100 6 14 4 29 7 34 7 6 1 -3 14 -18 30 -27 28 -28 34 -23 90 4 34 2 63 -3
66 -13 8 -31 11 -105 19 -33 4 -114 21 -181 37 -66 16 -132 32 -145 34 -13 3
-37 7 -53 11 -28 6 -253 13 -258 8z"/>
<path d="M1543 1383 c9 -9 20 -13 24 -9 4 4 1 11 -7 16 -25 16 -35 11 -17 -7z"/>
<path d="M146 1080 c-90 -27 -125 -166 -64 -256 55 -80 199 -70 244 18 27 52
24 146 -5 187 -38 53 -103 72 -175 51z m88 -30 c92 -34 70 -250 -25 -250 -64
0 -97 36 -101 110 -3 71 2 92 31 121 31 31 53 35 95 19z"/>
<path d="M395 1061 c6 -36 7 -191 2 -248 -4 -42 -4 -43 27 -40 33 3 32 -2 22
90 -2 15 0 27 3 28 3 0 25 2 48 4 23 2 51 8 62 15 23 12 48 57 46 80 -1 8 -3
25 -3 37 -3 37 -44 55 -132 59 l-80 3 5 -28z m133 -16 c40 -14 28 -98 -16
-112 -24 -8 -33 -9 -59 -4 -10 1 -8 104 1 119 6 10 42 8 74 -3z"/>
<path d="M725 1083 c-16 -3 -27 -26 -53 -106 -18 -56 -44 -124 -58 -152 -13
-27 -24 -51 -24 -52 0 -2 15 -3 33 -3 24 0 33 5 34 18 1 23 10 57 25 101 7 20
13 38 13 41 17 63 31 100 37 100 4 0 7 -3 6 -7 0 -5 2 -15 5 -23 18 -41 67
-196 67 -212 0 -14 8 -18 35 -18 19 0 35 1 35 3 0 2 -8 21 -19 43 -10 21 -36
90 -57 151 -21 62 -43 114 -49 116 -5 2 -19 1 -30 0z"/>
<path d="M995 1073 c-54 -18 -85 -64 -89 -135 -4 -70 15 -117 60 -147 43 -30
113 -33 162 -7 64 33 90 151 51 230 -28 59 -109 85 -184 59z m136 -71 c48
-125 -25 -241 -124 -197 -44 19 -63 112 -38 186 25 76 135 83 162 11z"/>
<path d="M1278 1082 c-44 -3 -47 -5 -39 -25 7 -22 7 -249 0 -275 -4 -13 20
-15 137 -13 14 1 38 14 55 31 24 24 29 36 25 61 -5 31 -33 72 -45 64 -4 -2
-13 0 -21 6 -13 7 -13 9 1 9 27 0 60 45 56 76 -7 54 -57 73 -169 66z m110 -50
c30 -39 -1 -82 -60 -82 l-38 0 0 49 c0 31 5 51 13 54 22 8 72 -4 85 -21z m3
-138 c38 -34 -5 -107 -58 -98 -15 3 -30 7 -35 10 -13 8 -9 102 5 107 22 8 69
-2 88 -19z"/>
<path d="M1586 1075 c-69 -24 -96 -65 -96 -145 0 -86 39 -143 108 -157 47 -10
115 -5 123 9 15 22 10 30 -13 22 -35 -12 -87 -7 -114 11 -35 23 -52 64 -50
120 1 55 34 114 64 116 9 1 27 3 39 4 13 1 34 -3 47 -10 22 -12 25 -11 30 8 3
12 4 22 3 23 -10 10 -112 9 -141 -1z"/>
<path d="M1767 1084 c-2 -3 -1 -21 2 -42 6 -38 6 -183 0 -237 -4 -27 -1 -29
27 -31 l30 -1 -3 51 c-2 35 1 57 12 70 14 19 15 19 40 -10 14 -16 37 -47 52
-70 l26 -40 78 0 c74 1 79 2 89 26 6 14 39 69 74 124 l63 98 -2 -108 c-2 -60
-4 -115 -6 -123 -3 -8 6 -15 21 -17 l25 -4 0 158 c0 152 -1 159 -20 157 -32
-1 -38 -8 -116 -134 -41 -67 -78 -121 -82 -121 -5 0 -5 5 -1 11 4 7 8 64 9
129 l2 117 -28 0 c-26 0 -28 -3 -22 -26 9 -34 9 -242 -1 -266 -6 -16 -10 -15
-41 15 -19 19 -47 52 -62 74 -16 23 -34 46 -42 52 -12 10 -3 23 52 80 37 37
67 69 67 70 0 1 -17 1 -37 -1 -22 -1 -41 -10 -49 -21 -31 -45 -100 -133 -105
-134 -5 0 -3 56 5 120 4 33 3 35 -24 36 -16 1 -31 0 -33 -2z"/>
<path d="M2355 1082 c-2 -3 -1 -12 3 -21 8 -16 8 -242 1 -271 -3 -12 11 -15
85 -15 84 0 89 1 97 23 8 21 7 23 -13 16 -33 -10 -80 -14 -101 -8 -15 5 -17
15 -15 62 3 55 4 56 33 57 17 0 40 -3 51 -7 18 -5 23 -2 26 17 5 22 3 23 -51
22 l-56 -2 0 49 c0 45 2 49 25 51 13 1 39 -1 57 -5 29 -7 33 -6 33 14 0 20 -5
21 -85 22 -47 0 -88 -2 -90 -4z"/>
<path d="M309 631 c12 -16 21 -34 21 -39 0 -6 3 -12 8 -14 4 -1 21 -32 38 -68
l31 -65 -28 -45 c-15 -25 -28 -47 -28 -50 -1 -3 14 -5 32 -5 26 0 33 4 35 25
4 24 115 246 133 264 16 17 10 25 -21 24 -16 -1 -30 -5 -30 -9 0 -4 -5 -20
-11 -36 -6 -15 -11 -30 -11 -33 0 -3 -9 -17 -19 -32 -10 -14 -19 -32 -19 -39
0 -21 -30 27 -55 89 -22 53 -25 57 -60 60 l-37 2 21 -29z"/>
<path d="M639 640 c-44 -23 -70 -74 -70 -138 -1 -61 12 -93 50 -125 48 -40
169 -49 184 -13 10 26 6 28 -30 14 -43 -16 -105 3 -129 40 -42 64 -22 179 34
200 53 20 60 20 87 6 34 -17 32 -17 39 3 4 9 1 20 -6 25 -24 15 -122 8 -159
-12z"/>
<path d="M955 647 c-3 -7 -23 -66 -46 -132 -23 -66 -47 -132 -55 -146 -12 -25
-12 -25 18 -24 23 1 32 7 34 22 2 11 8 32 14 47 9 25 13 27 67 24 l56 -3 16
-45 c14 -38 20 -45 44 -46 21 0 26 3 21 15 -18 44 -94 274 -94 285 0 17 -70
19 -75 3z m57 -100 c9 -34 14 -65 12 -69 -3 -5 -23 -8 -45 -8 -34 0 -40 3 -35
18 23 83 40 131 45 126 3 -3 13 -33 23 -67z"/>
<path d="M1289 657 c0 -1 -2 -9 -4 -17 -5 -23 -45 -136 -70 -199 -13 -31 -29
-56 -37 -56 -7 0 -13 -12 -14 -27 -1 -22 2 -25 15 -19 20 11 261 8 279 -2 8
-6 12 -2 12 12 0 12 0 24 0 29 0 4 -4 7 -9 7 -5 0 -12 3 -15 6 -7 7 -87 226
-90 249 -2 9 -15 16 -34 17 -18 1 -32 1 -33 0z m46 -105 c2 -9 15 -48 29 -87
14 -38 26 -73 26 -76 0 -4 -33 -6 -72 -5 -42 0 -72 5 -72 11 1 9 47 158 60
195 5 13 7 12 15 -3 6 -9 12 -25 14 -35z"/>
<path d="M1525 503 l1 -158 59 1 c97 3 100 3 123 24 16 16 22 32 22 66 0 60
-31 90 -105 99 l-53 7 4 59 c3 58 3 59 -24 59 l-27 0 0 -157z m135 -18 c24
-22 26 -68 4 -89 -15 -15 -25 -18 -59 -18 -8 0 -18 0 -23 1 -6 1 -9 101 -4
122 4 13 63 1 82 -16z"/>
<path d="M1774 499 l0 -158 78 4 c91 4 114 15 123 54 17 80 -26 133 -109 135
-41 2 -41 2 -41 41 0 33 4 39 27 46 15 4 44 3 65 -1 44 -10 44 -10 37 16 -5
17 -14 19 -92 19 l-88 1 0 -157z m137 -15 c33 -30 17 -101 -24 -105 -7 -1 -22
-3 -34 -4 -14 -1 -24 4 -27 14 -8 28 -3 106 6 112 16 10 59 1 79 -17z"/>
<path d="M2026 501 l1 -156 59 1 c94 3 99 3 117 17 24 17 35 66 25 104 -11 42
-48 66 -106 68 l-47 2 0 39 c0 22 3 49 7 61 6 19 3 21 -25 21 l-32 0 1 -157z
m116 0 c33 -6 52 -87 26 -109 -20 -16 -77 -22 -85 -9 -11 17 -10 111 0 118 7
5 32 5 59 0z"/>
<path d="M2249 626 c9 -39 7 -234 -2 -262 -6 -18 -3 -20 23 -19 l31 1 2 155 2
155 -31 1 c-30 1 -31 0 -25 -31z"/>
</g>
</svg>
